<?xml version="1.0" encoding="utf-8"?>
<!-- Generator: Adobe Illustrator 15.0.2, SVG Export Plug-In  -->
<!DOCTYPE svg PUBLIC "-//W3C//DTD SVG 1.1 Tiny//EN" "http://www.w3.org/Graphics/SVG/1.1/DTD/svg11-tiny.dtd" [
	<!ENTITY ns_flows "http://ns.adobe.com/Flows/1.0/">
]>
<svg version="1.1" baseProfile="tiny"
	 xmlns="http://www.w3.org/2000/svg" xmlns:xlink="http://www.w3.org/1999/xlink" xmlns:a="http://ns.adobe.com/AdobeSVGViewerExtensions/3.0/"
	 x="0px" y="0px" width="186px" height="35px" viewBox="0 0 186 35" overflow="visible" xml:space="preserve">
<defs>
</defs>
<rect x="6.322" fill="#B12009" width="4.064" height="24.96"/>
<polygon fill="#858584" points="13.096,35 17.182,35 10.387,25.801 6.322,25.801 "/>
<polygon fill="#858584" points="3.548,30.611 7.613,30.611 4.064,25.801 0,25.801 "/>
<rect y="12.141" fill="#B12009" width="4.064" height="12.819"/>
<rect x="12.645" y="12.141" fill="#B12009" width="4.064" height="12.819"/>
<polygon fill="#858584" points="16.191,30.611 20.256,30.611 16.709,25.801 12.645,25.801 "/>
<path d="M33.032,24.949l-3.319-4.898c-0.272,0.018-0.544,0.034-0.834,0.034c-0.409,0-1.004-0.017-1.413-0.034v4.898h-1.362V12.646
	c0.919-0.118,1.838-0.203,2.876-0.203c3.217,0,4.8,1.593,4.8,3.728c0,1.729-0.97,3.034-2.723,3.593l3.625,5.187L33.032,24.949
	L33.032,24.949z M29.186,13.663c-0.579,0-1.277,0.034-1.719,0.135v5.05c0.409,0.051,1.038,0.086,1.515,0.086
	c2.332,0,3.336-1.068,3.336-2.679C32.317,14.798,31.228,13.663,29.186,13.663z"/>
<path d="M39.601,24.949V12.527h7.301v1.22h-5.939v4.288h5.344v1.221h-5.344v4.475h5.939v1.22L39.601,24.949L39.601,24.949z"/>
<path d="M62.237,25.188l-8.101-9.661v9.422h-1.362V12.357l0.272-0.067l8,9.507v-9.27h1.361v12.608L62.237,25.188z"/>
<path d="M73.13,13.747v11.202h-1.361V13.747h-4.17v-1.22h9.684v1.22H73.13z"/>
<path d="M90.048,24.949l-1.48-3.44h-5.583l-1.48,3.44h-1.413l5.599-12.643h0.221l5.6,12.643H90.048z M85.776,15.035l-2.298,5.338
	h4.595L85.776,15.035z"/>
<path d="M96.361,24.949V12.527h1.361v11.202h5.94v1.221H96.361z"/>
<path d="M112.751,25.152c-2.858,0-4.681-1.678-4.681-4.66v-7.965h1.363v7.864c0,2.49,1.36,3.541,3.317,3.541
	c1.94,0,3.354-1.067,3.354-3.541v-7.864h1.36v7.965C117.466,23.373,115.543,25.152,112.751,25.152z"/>
<path d="M128.035,13.747v11.202h-1.361V13.747h-4.169v-1.22h9.685v1.22H128.035z"/>
<path d="M137.464,24.949V12.527h1.361v12.422H137.464z"/>
<path d="M150.773,25.152c-3.371,0-6.162-2.678-6.162-6.406c0-3.729,2.912-6.423,6.281-6.423s6.162,2.694,6.162,6.423
	C157.055,22.475,154.145,25.152,150.773,25.152z M150.842,13.544c-2.773,0-4.749,2.271-4.749,5.203c0,2.933,1.976,5.203,4.749,5.203
	c2.758,0,4.731-2.271,4.731-5.203C155.573,15.815,153.6,13.544,150.842,13.544z"/>
<path d="M172.218,25.188l-8.102-9.661v9.422h-1.362V12.357l0.273-0.067l7.998,9.507v-9.27h1.361v12.608L172.218,25.188z"/>
<path d="M181.188,25.152c-1.412,0-2.519-0.44-3.607-1.152l0.664-1.188c0.953,0.679,2.042,1.103,3.012,1.103
	c1.6,0,2.348-1.051,2.348-2.169c0-1.084-0.424-1.729-2.467-2.627c-2.162-0.949-2.962-1.915-2.962-3.406
	c0-1.797,1.532-3.39,3.813-3.39c1.055,0,2.06,0.356,2.773,0.847l-0.611,1.152c-0.613-0.44-1.43-0.763-2.248-0.763
	c-1.564,0-2.365,0.949-2.365,2.084c0,0.865,0.596,1.559,2.128,2.254c2.604,1.169,3.336,2.035,3.336,3.695
	C185,23.609,183.35,25.152,181.188,25.152z"/>
</svg>
